<svg width="64" height="64" viewBox="0 0 64 64" fill="none" xmlns="http://www.w3.org/2000/svg">
    <defs>
        <linearGradient id="cyberGrad" x1="0" y1="0" x2="64" y2="64" gradientUnits="userSpaceOnUse">
            <stop offset="0%" stop-color="#404040" />
            <stop offset="100%" stop-color="#0a0a0a" />
        </linearGradient>
    </defs>

    <!-- Héxagone (Fond) -->
    <path d="M32 2 L58 17 V47 L32 62 L6 47 V17 L32 2 Z" 
          fill="url(#cyberGrad)" stroke="rgba(255,255,255,0.2)" stroke-width="1" />

    <!-- Épée Cyber-Tech REDUITE -->
    <!-- Scale 0.75 (75%) autour du centre (32,32) -->
    <g fill="white" transform="translate(32, 32) scale(0.75) translate(-32, -32)">
        <!-- Lame affûtée (profil diamant) -->
        <path d="M32 10 L26 36 L32 40 V10 Z" fill="#D4D4D4"/> 
        <path d="M32 10 L38 36 L32 40 V10 Z" fill="white"/>
        
        <!-- Garde Aérodynamique -->
        <path d="M16 34 L24 32 L32 38 L40 32 L48 34 L32 44 L16 34 Z"/>
        
        <!-- Poignée Ergonomique -->
        <path d="M29 44 L30 54 H34 L35 44 H29 Z"/>
        
        <!-- Pommeau Cristal -->
        <path d="M32 54 L36 57 L32 60 L28 57 L32 54 Z"/>
        
        <!-- Noyau énergétique -->
        <circle cx="32" cy="38" r="2" fill="#ffffff"/>
    </g>
</svg>